<svg xmlns="http://www.w3.org/2000/svg" xmlns:xlink="http://www.w3.org/1999/xlink" version="1.1" width="155.322998046875" height="152.9340057373047" enable-background="new 0 0 155.323 152.934" xml:space="preserve" style=""><rect id="backgroundrect" width="100%" height="100%" x="0" y="0" fill="none" stroke="none"/>

<g class="currentLayer" style=""><title>Layer 1</title><g id="svg_1" class="selected" fill-opacity="1" fill="#323432">
	<path fill="#323432" d="M47.579,25.795c-4.415,2.508-8.48,5.434-12.133,8.711l0.086,83.996c2.731,2.442,5.688,4.695,8.859,6.721   l-0.09-90.001l41.937,44.535l41.857-44.599l0.091,90.009c3.166-2.026,6.117-4.286,8.844-6.736l-0.082-84.003   c-3.656-3.271-7.729-6.189-12.151-8.69L86.23,66.836L47.579,25.795z" id="svg_2"/>
	<path fill="#323432" d="M35.438,25.525c2.307-1.759,4.721-3.407,7.254-4.918C55.106,13.195,70.104,8.852,86.241,8.852   c16.088,0,31.042,4.314,43.434,11.683c2.536,1.508,4.955,3.156,7.262,4.908c7.556,5.739,13.823,12.73,18.387,20.607V30.739   c-5.186-6.142-11.399-11.561-18.398-16.084c-0.359-0.234-0.723-0.46-1.086-0.687C121.799,5.182,104.696,0,86.241,0   C67.732,0,50.58,5.214,36.518,14.047c-0.367,0.227-0.73,0.454-1.09,0.688C13.972,28.66,0,51.138,0,76.465   c0,42.168,38.688,76.469,86.241,76.469c28.235,0,53.34-12.09,69.082-30.739v-15.31c-4.541,7.844-10.773,14.806-18.286,20.53   c-2.782,2.12-5.736,4.066-8.845,5.826c-12.097,6.847-26.497,10.842-41.951,10.842c-15.411,0-29.771-3.97-41.843-10.781   c-3.116-1.756-6.074-3.699-8.859-5.814C19.211,115.081,8.852,96.816,8.852,76.465C8.852,56.161,19.164,37.929,35.438,25.525z" id="svg_3"/>
</g></g></svg>